<svg xmlns="http://www.w3.org/2000/svg" xmlns:xlink="http://www.w3.org/1999/xlink" width="500" zoomAndPan="magnify" viewBox="0 0 375 374.999991" height="500" preserveAspectRatio="xMidYMid meet" version="1.0"><defs><clipPath id="0788ab5be1"><path d="M 15 10.3125 L 366 10.3125 L 366 356 L 15 356 Z M 15 10.3125 " clip-rule="nonzero"/></clipPath><clipPath id="dfdae80336"><path d="M 149 10.3125 L 155 10.3125 L 155 41 L 149 41 Z M 149 10.3125 " clip-rule="nonzero"/></clipPath></defs><g clip-path="url(#0788ab5be1)"><path fill="#0066cc" d="M 317.507812 93.382812 L 317.511719 108.429688 C 353.53125 187.941406 326.523438 271.152344 261.078125 299.046875 C 213.605469 315.859375 168.757812 298.023438 148.84375 287.753906 C 93.035156 256.941406 76.535156 216.617188 71.757812 192.789062 C 71.757812 192.789062 57.285156 99.007812 150.78125 89 L 153.113281 88.589844 L 153.140625 114.199219 L 245.195312 65.054688 L 154.628906 10.3125 L 154.433594 39.621094 C 98.066406 42.996094 0 77.644531 17.308594 199.082031 C 31.753906 281.488281 114.59375 326.300781 114.59375 326.300781 L 114.71875 326.1875 C 134.339844 337.476562 152.394531 343.085938 152.394531 343.085938 C 195.390625 358.917969 232.863281 356.835938 258.265625 351.554688 C 266.84375 349.585938 276.105469 347.066406 283.355469 343.960938 C 289.191406 341.71875 292.242188 340.179688 292.242188 340.179688 C 343.875 313.609375 359.328125 261.625 361.4375 249.738281 C 361.828125 248.25 362.1875 246.644531 362.484375 244.902344 C 375 171.484375 348.25 123.472656 317.507812 93.382812 Z M 317.507812 93.382812 " fill-opacity="1" fill-rule="nonzero"/></g><path fill="#33cc66" d="M 298.757812 272.875 C 335.410156 234.320312 345.507812 170.28125 317.511719 108.453125 L 317.519531 127.941406 C 337.3125 182.292969 328.46875 236.832031 298.757812 272.875 Z M 298.757812 272.875 " fill-opacity="1" fill-rule="nonzero"/><g clip-path="url(#dfdae80336)"><path fill="#33cc66" d="M 154.445312 39.144531 L 154.628906 10.3125 L 149.171875 16.449219 L 149.03125 40.027344 C 150.871094 39.863281 152.667969 39.722656 154.433594 39.617188 Z M 154.445312 39.144531 " fill-opacity="1" fill-rule="nonzero"/></g><path fill="#33cc66" d="M 292.25 340.191406 C 292.25 340.191406 289.195312 341.722656 283.363281 343.972656 C 276.105469 347.078125 266.847656 349.589844 258.273438 351.566406 C 232.867188 356.847656 195.394531 358.929688 152.398438 343.101562 C 152.398438 343.101562 134.34375 337.480469 114.722656 326.199219 L 114.597656 326.3125 C 114.597656 326.3125 31.757812 281.496094 17.3125 199.09375 C 10.34375 150.183594 22.089844 115.363281 42.273438 90.992188 C 18.8125 115.542969 4.285156 152.070312 11.863281 205.226562 C 26.308594 287.628906 109.148438 332.445312 109.148438 332.445312 L 109.273438 332.332031 C 128.894531 343.621094 146.949219 349.230469 146.949219 349.230469 C 189.945312 365.0625 227.410156 362.980469 252.816406 357.703125 C 261.398438 355.730469 270.664062 353.210938 277.910156 350.113281 C 283.738281 347.867188 286.792969 346.335938 286.792969 346.335938 C 303.855469 337.558594 316.960938 326.007812 326.949219 314.042969 C 317.769531 323.761719 306.367188 332.929688 292.25 340.191406 Z M 292.25 340.191406 " fill-opacity="1" fill-rule="nonzero"/><path fill="#33cc66" d="M 153.136719 114.203125 L 153.136719 114.097656 L 147.402344 124.433594 L 147.398438 124.613281 L 245.191406 65.0625 Z M 153.136719 114.203125 " fill-opacity="1" fill-rule="nonzero"/><path fill="#33cc66" d="M 153.105469 88.589844 L 150.773438 89 C 57.277344 99.007812 71.753906 192.789062 71.753906 192.789062 C 72.035156 194.167969 72.351562 195.617188 72.710938 197.113281 C 71.15625 180.613281 68.757812 107.777344 145.324219 95.144531 L 147.453125 94.773438 L 153.097656 88.679688 L 153.097656 88.589844 Z M 153.105469 88.589844 " fill-opacity="1" fill-rule="nonzero"/><path fill="#33cc66" d="M 147.464844 94.765625 L 147.65625 94.734375 L 147.402344 124.433594 L 153.136719 114.097656 L 153.105469 88.675781 Z M 147.464844 94.765625 " fill-opacity="1" fill-rule="nonzero"/><path fill="#ffcc00" d="M 195.324219 288.011719 L 195.371094 176.878906 C 177.421875 188.421875 160.492188 196.46875 145.628906 202.085938 L 145.59375 267.933594 C 148.910156 270.050781 152.382812 272.132812 156.070312 274.171875 C 164.328125 278.414062 178.3125 284.574219 195.324219 288.011719 Z M 195.324219 288.011719 " fill-opacity="1" fill-rule="nonzero"/><path fill="#ffcc00" d="M 134 259.84375 L 134.003906 206.128906 C 116.636719 211.675781 103.0625 213.75 95.410156 214.527344 C 102.371094 228.558594 114.125 244.71875 134 259.84375 Z M 134 259.84375 " fill-opacity="1" fill-rule="nonzero"/><path fill="#ffcc00" d="M 255.070312 284.839844 L 255.070312 126.652344 C 238.898438 143.925781 222.664062 157.820312 206.996094 168.996094 L 206.996094 289.828125 C 211.273438 290.300781 215.683594 290.570312 220.191406 290.570312 C 232.292969 290.578125 244.019531 288.636719 255.070312 284.839844 Z M 255.070312 284.839844 " fill-opacity="1" fill-rule="nonzero"/><path fill="#ffcc00" d="M 312.816406 218.035156 C 315.164062 210.199219 316.71875 202.113281 317.542969 193.894531 L 317.480469 23.75 C 301.375 53.460938 284.167969 88.550781 266.695312 109.089844 L 266.84375 278.890625 C 288.730469 265.855469 304.835938 244.671875 312.816406 218.035156 Z M 312.816406 218.035156 " fill-opacity="1" fill-rule="nonzero"/><path fill="#33cc66" d="M 156.074219 274.171875 C 152.386719 272.132812 148.921875 270.050781 145.605469 267.933594 L 145.597656 275.25 C 148.914062 277.367188 152.386719 279.453125 156.074219 281.496094 C 164.328125 285.738281 178.3125 291.894531 195.328125 295.332031 L 195.328125 288.011719 C 178.3125 284.574219 164.328125 278.414062 156.074219 274.171875 Z M 156.074219 274.171875 " fill-opacity="1" fill-rule="nonzero"/><path fill="#33cc66" d="M 95.414062 214.53125 C 95.414062 214.53125 95.472656 222.015625 95.414062 221.847656 C 102.371094 235.882812 114.125 252.042969 134 267.164062 L 134 259.847656 C 114.125 244.71875 102.371094 228.558594 95.414062 214.53125 Z M 95.414062 214.53125 " fill-opacity="1" fill-rule="nonzero"/><path fill="#33cc66" d="M 206.996094 289.835938 L 206.996094 297.15625 C 211.273438 297.625 215.683594 297.898438 220.191406 297.898438 C 232.289062 297.898438 244.011719 295.96875 255.0625 292.160156 L 255.0625 284.84375 C 244.011719 288.648438 232.289062 290.582031 220.191406 290.582031 C 215.683594 290.578125 211.273438 290.308594 206.996094 289.835938 Z M 206.996094 289.835938 " fill-opacity="1" fill-rule="nonzero"/><path fill="#33cc66" d="M 317.542969 193.894531 C 316.71875 202.113281 315.164062 210.199219 312.816406 218.035156 C 304.835938 244.671875 288.730469 265.855469 266.84375 278.890625 L 266.84375 286.210938 C 288.730469 273.171875 305.007812 252.042969 312.816406 225.359375 C 316.371094 213.183594 316.777344 202.707031 317.601562 194.480469 Z M 317.542969 193.894531 " fill-opacity="1" fill-rule="nonzero"/></svg>